<svg width="2305" height="873" viewBox="0 0 2305 873" fill="none" xmlns="http://www.w3.org/2000/svg">
<g clip-path="url(#clip0_8_208)">
<path d="M1083.81 458.436H1009.98V445.789H1083.81C1099.76 445.789 1112.75 443.169 1122.77 437.928C1132.8 432.573 1140.09 425.452 1144.65 416.565C1149.32 407.565 1151.66 397.653 1151.66 386.829C1151.66 375.664 1149.32 365.467 1144.65 356.238C1140.09 347.01 1132.8 339.661 1122.77 334.192C1112.75 328.61 1099.76 325.818 1083.81 325.818H1017.16V562H1003.32V313.172H1083.81C1101.7 313.172 1116.68 316.248 1128.76 322.4C1140.95 328.553 1150.12 337.155 1156.27 348.206C1162.42 359.144 1165.5 371.904 1165.5 386.487C1165.5 401.299 1162.42 414.116 1156.27 424.939C1150.12 435.649 1141 443.909 1128.93 449.72C1116.85 455.53 1101.81 458.436 1083.81 458.436ZM1355.37 549.354V562H1223.43V549.354H1355.37ZM1229.59 313.172V562H1215.57V313.172H1229.59ZM1543.7 313.172H1557.54V481.849C1557.54 500.42 1553.72 515.914 1546.09 528.333C1538.57 540.752 1528.26 550.037 1515.16 556.189C1502.17 562.342 1487.64 565.418 1471.58 565.418C1455.29 565.418 1440.65 562.342 1427.66 556.189C1414.67 550.037 1404.36 540.752 1396.72 528.333C1389.21 515.914 1385.45 500.42 1385.45 481.849V313.172H1399.29V481.849C1399.29 497.229 1402.42 510.218 1408.69 520.813C1414.95 531.295 1423.56 539.271 1434.49 544.739C1445.43 550.094 1457.79 552.771 1471.58 552.771C1485.36 552.771 1497.67 550.094 1508.49 544.739C1519.43 539.271 1528.03 531.295 1534.3 520.813C1540.56 510.218 1543.7 497.229 1543.7 481.849V313.172ZM1624.87 313.172H1639.4L1737.84 542.176L1836.28 313.172H1850.8L1743.14 562H1732.37L1624.87 313.172ZM1620.6 313.172H1633.59L1634.44 446.302V562H1620.6V313.172ZM1842.43 313.172H1855.42V562H1841.57V446.302L1842.43 313.172ZM2074.51 549.354V562H1929.42V549.354H2074.51ZM1935.57 313.172V562H1921.72V313.172H1935.57ZM2057.08 427.503V440.32H1929.42V427.503H2057.08ZM2074.17 313.172V325.818H1929.42V313.172H2074.17Z" fill="black"/>
<g filter="url(#filter0_f_8_208)">
<circle cx="285" cy="205" r="68" fill="#EB00FF" fill-opacity="0.75"/>
</g>
<g filter="url(#filter1_f_8_208)">
<circle cx="362" cy="307.5" r="68" fill="#00C2FF" fill-opacity="0.75"/>
</g>
<g filter="url(#filter2_f_8_208)">
<circle cx="288" cy="304" r="68" fill="#FFF500" fill-opacity="0.75"/>
</g>
<g filter="url(#filter3_f_8_208)">
<circle cx="376" cy="273.5" r="68" fill="#EB00FF" fill-opacity="0.75"/>
</g>
<g filter="url(#filter4_f_8_208)">
<circle cx="464" cy="414" r="68" fill="#00C2FF" fill-opacity="0.75"/>
</g>
<g filter="url(#filter5_f_8_208)">
<circle cx="324" cy="341.5" r="68" fill="#FFF500" fill-opacity="0.75"/>
</g>
<g filter="url(#filter6_f_8_208)">
<circle cx="408" cy="320.5" r="68" fill="#EB00FF" fill-opacity="0.75"/>
</g>
<g filter="url(#filter7_f_8_208)">
<circle cx="408" cy="320.5" r="68" fill="#EB00FF" fill-opacity="0.75"/>
</g>
<g filter="url(#filter8_f_8_208)">
<circle cx="444" cy="409" r="68" fill="#00C2FF" fill-opacity="0.75"/>
</g>
<g filter="url(#filter9_f_8_208)">
<circle cx="469" cy="436" r="68" fill="#00C2FF" fill-opacity="0.75"/>
</g>
<g filter="url(#filter10_f_8_208)">
<circle cx="356" cy="388.5" r="68" fill="#FFF500" fill-opacity="0.75"/>
</g>
<g style="mix-blend-mode:luminosity" filter="url(#filter11_f_8_208)">
<circle cx="376" cy="320" r="68" fill="white"/>
</g>
<path fill-rule="evenodd" clip-rule="evenodd" d="M336.454 265.287C340.087 263.298 344.645 264.631 346.634 268.264C426.67 414.475 534.991 527.554 623.419 604.126C667.614 642.395 706.787 671.501 734.887 691.025C748.936 700.785 760.212 708.148 767.959 713.06C771.833 715.516 774.823 717.36 776.837 718.584C777.843 719.196 778.606 719.653 779.112 719.954C779.365 720.105 779.554 720.217 779.677 720.29L779.813 720.37L779.843 720.388L779.849 720.391C783.426 722.48 784.632 727.073 782.542 730.65C780.453 734.226 775.86 735.432 772.283 733.343L776.066 726.867C772.283 733.343 772.281 733.341 772.277 733.339L772.219 733.306L772.056 733.209C771.914 733.126 771.706 733.003 771.434 732.841C770.891 732.517 770.09 732.037 769.044 731.401C766.953 730.13 763.883 728.237 759.927 725.728C752.015 720.712 740.562 713.233 726.328 703.343C697.863 683.566 658.259 654.136 613.6 615.465C524.322 538.156 414.638 423.735 333.476 275.467C331.487 271.834 332.82 267.276 336.454 265.287Z" fill="black"/>
<path d="M640.784 680.833C478.66 687.091 401.241 587.332 401.241 587.332" stroke="black" stroke-width="15" stroke-linecap="round" stroke-linejoin="round"/>
<path fill-rule="evenodd" clip-rule="evenodd" d="M605.342 367.62C607.557 367.525 609.701 368.414 611.198 370.05C732.631 502.736 727.953 593.774 717.266 631.883C716.147 635.871 712.007 638.198 708.019 637.079C704.031 635.961 701.704 631.821 702.823 627.833C711.668 596.293 718.536 513.081 606.754 387.511C606.726 387.56 606.699 387.61 606.672 387.659C603.582 393.264 599.46 401.83 595.544 413.408C587.719 436.54 580.673 471.802 584.393 519.637C584.714 523.767 581.627 527.375 577.497 527.696C573.368 528.017 569.759 524.93 569.438 520.8C565.555 470.872 572.884 433.582 581.335 408.601C585.556 396.123 590.048 386.744 593.536 380.417C595.28 377.254 596.773 374.854 597.856 373.211C598.398 372.389 598.837 371.757 599.153 371.313C599.312 371.091 599.44 370.916 599.534 370.788C599.582 370.724 599.621 370.672 599.651 370.632L599.691 370.58L599.705 370.56L599.711 370.552C599.714 370.549 599.717 370.546 605.665 375.113L599.717 370.546C601.067 368.787 603.127 367.716 605.342 367.62ZM611.627 379.664L611.627 379.664C611.629 379.661 611.629 379.661 611.627 379.664Z" fill="black"/>
<path fill-rule="evenodd" clip-rule="evenodd" d="M265.344 164.333C262.639 163.811 259.851 163.904 257.187 164.605C254.519 165.307 252.044 166.602 249.945 168.392C247.847 170.182 246.178 172.423 245.064 174.946C243.952 177.465 243.421 180.201 243.51 182.953C243.609 185.574 243.704 188.358 243.805 191.296C245.987 254.998 250.628 390.457 352.953 484.493L352.971 484.509C403.2 530.974 464.454 563.856 530.936 580.045C534.961 581.025 537.429 585.082 536.449 589.106C535.469 593.131 531.412 595.599 527.387 594.619C458.43 577.828 394.896 543.723 342.796 495.531C235.696 397.1 230.956 255.787 228.825 192.238C228.721 189.136 228.623 186.22 228.52 183.502L228.518 183.466C228.352 178.456 229.318 173.474 231.342 168.888C233.366 164.303 236.397 160.233 240.211 156.98C244.024 153.727 248.521 151.375 253.368 150.099C258.215 148.823 263.288 148.656 268.208 149.609L268.233 149.614C385.56 172.76 459.405 230.787 503.89 283.187C526.104 309.352 540.974 334.082 550.307 352.318C554.975 361.439 558.264 368.945 560.397 374.207C561.464 376.838 562.242 378.91 562.76 380.343C563.019 381.06 563.213 381.617 563.346 382.006C563.412 382.2 563.463 382.351 563.499 382.459C563.517 382.514 563.531 382.557 563.541 382.589L563.554 382.629L563.559 382.643C563.561 382.648 563.562 382.652 556.423 384.953L563.562 382.652C564.832 386.595 562.666 390.821 558.724 392.091C554.782 393.361 550.556 391.196 549.285 387.254C549.285 387.254 549.285 387.253 549.285 387.253L549.284 387.25L549.261 387.181C549.239 387.113 549.202 387.003 549.15 386.85C549.046 386.545 548.881 386.072 548.653 385.442C548.198 384.181 547.488 382.288 546.496 379.842C544.513 374.95 541.405 367.847 536.955 359.152C528.051 341.758 513.796 318.032 492.456 292.895C449.835 242.692 378.863 186.731 265.344 164.333Z" fill="black"/>
</g>
<defs>
<filter id="filter0_f_8_208" x="40" y="-40" width="490" height="490" filterUnits="userSpaceOnUse" color-interpolation-filters="sRGB">
<feFlood flood-opacity="0" result="BackgroundImageFix"/>
<feBlend mode="normal" in="SourceGraphic" in2="BackgroundImageFix" result="shape"/>
<feGaussianBlur stdDeviation="88.5" result="effect1_foregroundBlur_8_208"/>
</filter>
<filter id="filter1_f_8_208" x="117" y="62.5" width="490" height="490" filterUnits="userSpaceOnUse" color-interpolation-filters="sRGB">
<feFlood flood-opacity="0" result="BackgroundImageFix"/>
<feBlend mode="normal" in="SourceGraphic" in2="BackgroundImageFix" result="shape"/>
<feGaussianBlur stdDeviation="88.5" result="effect1_foregroundBlur_8_208"/>
</filter>
<filter id="filter2_f_8_208" x="43" y="59" width="490" height="490" filterUnits="userSpaceOnUse" color-interpolation-filters="sRGB">
<feFlood flood-opacity="0" result="BackgroundImageFix"/>
<feBlend mode="normal" in="SourceGraphic" in2="BackgroundImageFix" result="shape"/>
<feGaussianBlur stdDeviation="88.5" result="effect1_foregroundBlur_8_208"/>
</filter>
<filter id="filter3_f_8_208" x="131" y="28.5" width="490" height="490" filterUnits="userSpaceOnUse" color-interpolation-filters="sRGB">
<feFlood flood-opacity="0" result="BackgroundImageFix"/>
<feBlend mode="normal" in="SourceGraphic" in2="BackgroundImageFix" result="shape"/>
<feGaussianBlur stdDeviation="88.5" result="effect1_foregroundBlur_8_208"/>
</filter>
<filter id="filter4_f_8_208" x="219" y="169" width="490" height="490" filterUnits="userSpaceOnUse" color-interpolation-filters="sRGB">
<feFlood flood-opacity="0" result="BackgroundImageFix"/>
<feBlend mode="normal" in="SourceGraphic" in2="BackgroundImageFix" result="shape"/>
<feGaussianBlur stdDeviation="88.5" result="effect1_foregroundBlur_8_208"/>
</filter>
<filter id="filter5_f_8_208" x="79" y="96.5" width="490" height="490" filterUnits="userSpaceOnUse" color-interpolation-filters="sRGB">
<feFlood flood-opacity="0" result="BackgroundImageFix"/>
<feBlend mode="normal" in="SourceGraphic" in2="BackgroundImageFix" result="shape"/>
<feGaussianBlur stdDeviation="88.5" result="effect1_foregroundBlur_8_208"/>
</filter>
<filter id="filter6_f_8_208" x="163" y="75.5" width="490" height="490" filterUnits="userSpaceOnUse" color-interpolation-filters="sRGB">
<feFlood flood-opacity="0" result="BackgroundImageFix"/>
<feBlend mode="normal" in="SourceGraphic" in2="BackgroundImageFix" result="shape"/>
<feGaussianBlur stdDeviation="88.5" result="effect1_foregroundBlur_8_208"/>
</filter>
<filter id="filter7_f_8_208" x="163" y="75.5" width="490" height="490" filterUnits="userSpaceOnUse" color-interpolation-filters="sRGB">
<feFlood flood-opacity="0" result="BackgroundImageFix"/>
<feBlend mode="normal" in="SourceGraphic" in2="BackgroundImageFix" result="shape"/>
<feGaussianBlur stdDeviation="88.5" result="effect1_foregroundBlur_8_208"/>
</filter>
<filter id="filter8_f_8_208" x="199" y="164" width="490" height="490" filterUnits="userSpaceOnUse" color-interpolation-filters="sRGB">
<feFlood flood-opacity="0" result="BackgroundImageFix"/>
<feBlend mode="normal" in="SourceGraphic" in2="BackgroundImageFix" result="shape"/>
<feGaussianBlur stdDeviation="88.5" result="effect1_foregroundBlur_8_208"/>
</filter>
<filter id="filter9_f_8_208" x="224" y="191" width="490" height="490" filterUnits="userSpaceOnUse" color-interpolation-filters="sRGB">
<feFlood flood-opacity="0" result="BackgroundImageFix"/>
<feBlend mode="normal" in="SourceGraphic" in2="BackgroundImageFix" result="shape"/>
<feGaussianBlur stdDeviation="88.5" result="effect1_foregroundBlur_8_208"/>
</filter>
<filter id="filter10_f_8_208" x="111" y="143.5" width="490" height="490" filterUnits="userSpaceOnUse" color-interpolation-filters="sRGB">
<feFlood flood-opacity="0" result="BackgroundImageFix"/>
<feBlend mode="normal" in="SourceGraphic" in2="BackgroundImageFix" result="shape"/>
<feGaussianBlur stdDeviation="88.5" result="effect1_foregroundBlur_8_208"/>
</filter>
<filter id="filter11_f_8_208" x="131" y="75" width="490" height="490" filterUnits="userSpaceOnUse" color-interpolation-filters="sRGB">
<feFlood flood-opacity="0" result="BackgroundImageFix"/>
<feBlend mode="normal" in="SourceGraphic" in2="BackgroundImageFix" result="shape"/>
<feGaussianBlur stdDeviation="88.5" result="effect1_foregroundBlur_8_208"/>
</filter>
<clipPath id="clip0_8_208">
<rect width="2305" height="873" fill="white"/>
</clipPath>
</defs>
</svg>
